<?xml version="1.0" encoding="UTF-8"?>
<!DOCTYPE svg PUBLIC "-//W3C//DTD SVG 1.1//EN" "http://www.w3.org/Graphics/SVG/1.1/DTD/svg11.dtd">
<svg xmlns="http://www.w3.org/2000/svg" version="1.1" width="100px" height="100px" style="shape-rendering:geometricPrecision; text-rendering:geometricPrecision; image-rendering:optimizeQuality; fill-rule:evenodd; clip-rule:evenodd" xmlns:xlink="http://www.w3.org/1999/xlink">
<g><path style="opacity:0.399" fill="#ffece5" d="M 99.5,31.5 C 99.5,35.8333 99.5,40.1667 99.5,44.5C 98.6364,45.6883 97.6364,46.8549 96.5,48C 97.7811,49.4087 98.7811,50.9087 99.5,52.5C 99.5,56.5 99.5,60.5 99.5,64.5C 98.4215,68.7475 95.7548,71.5808 91.5,73C 81.8391,73.4998 72.1724,73.6665 62.5,73.5C 62.5,56.5 62.5,39.5 62.5,22.5C 71.8393,22.3335 81.1726,22.5002 90.5,23C 95.3457,24.0152 98.3457,26.8486 99.5,31.5 Z"/></g>
<g><path style="opacity:1" fill="#ff4704" d="M 65.5,24.5 C 72.8409,24.3337 80.1742,24.5003 87.5,25C 91.0703,25.6111 93.737,27.4445 95.5,30.5C 96.3597,34.4338 96.693,38.4338 96.5,42.5C 95.5588,44.4664 94.5588,46.4664 93.5,48.5C 94.1925,49.5178 94.8592,50.5178 95.5,51.5C 96.3597,55.4338 96.693,59.4338 96.5,63.5C 95.5554,68.4419 92.5554,70.7753 87.5,70.5C 80.1667,70.5 72.8333,70.5 65.5,70.5C 65.5,66.8333 65.5,63.1667 65.5,59.5C 72.175,59.6663 78.8417,59.4996 85.5,59C 86.8333,57.6667 86.8333,56.3333 85.5,55C 78.8417,54.5004 72.175,54.3337 65.5,54.5C 65.5,50.1667 65.5,45.8333 65.5,41.5C 72.3543,41.824 79.021,41.4907 85.5,40.5C 86.7911,39.4583 86.7911,38.2917 85.5,37C 78.8417,36.5004 72.175,36.3337 65.5,36.5C 65.5,32.5 65.5,28.5 65.5,24.5 Z"/></g>
<g><path style="opacity:1" fill="#ff7c4b" d="M 95.5,30.5 C 97.548,32.4564 98.548,34.9564 98.5,38C 98.6932,40.0081 98.0265,41.5081 96.5,42.5C 96.693,38.4338 96.3597,34.4338 95.5,30.5 Z"/></g>
<g><path style="opacity:0.831" fill="#ffc6b0" d="M 65.5,24.5 C 65.5,28.5 65.5,32.5 65.5,36.5C 72.175,36.3337 78.8417,36.5004 85.5,37C 86.7911,38.2917 86.7911,39.4583 85.5,40.5C 78.9131,38.5388 71.9131,37.8721 64.5,38.5C 64.1805,33.6367 64.5139,28.97 65.5,24.5 Z"/></g>
<g><path style="opacity:0.442" fill="#e3e3e3" d="M -0.5,73.5 C -0.5,60.1667 -0.5,46.8333 -0.5,33.5C 1.22576,31.0578 2.72576,28.3911 4,25.5C 12.7043,20.172 21.371,20.172 30,25.5C 37.8551,20.8084 46.0218,20.3084 54.5,24C 57.3083,27.1193 59.4749,30.6193 61,34.5C 61.4999,47.4957 61.6666,60.4957 61.5,73.5C 54.8333,73.5 48.1667,73.5 41.5,73.5C 41.1667,32.1667 40.8333,32.1667 40.5,73.5C 33.8333,73.5 27.1667,73.5 20.5,73.5C 20.9741,63.0021 20.4741,52.6688 19,42.5C 18.5002,52.828 18.3335,63.1613 18.5,73.5C 12.1667,73.5 5.83333,73.5 -0.5,73.5 Z"/></g>
<g><path style="opacity:0.992" fill="#707070" d="M 4.5,30.5 C 4.24512,32.9674 3.24512,34.9674 1.5,36.5C 1.75488,34.0326 2.75488,32.0326 4.5,30.5 Z"/></g>
<g><path style="opacity:1" fill="#050505" d="M 46.5,23.5 C 51.6064,25.3128 55.4397,28.6461 58,33.5C 58.4999,46.1623 58.6666,58.8289 58.5,71.5C 53.8333,71.5 49.1667,71.5 44.5,71.5C 44.6665,61.4944 44.4998,51.4944 44,41.5C 41.7067,38.8661 39.54,38.8661 37.5,41.5C 36.506,51.3194 36.1726,61.3194 36.5,71.5C 32.1667,71.5 27.8333,71.5 23.5,71.5C 23.8274,61.3194 23.494,51.3194 22.5,41.5C 20.8235,39.5021 18.8235,39.1688 16.5,40.5C 15.5014,50.8119 15.1681,61.1452 15.5,71.5C 10.8333,71.5 6.16667,71.5 1.5,71.5C 1.5,60.1667 1.5,48.8333 1.5,37.5C 1.5,37.1667 1.5,36.8333 1.5,36.5C 3.24512,34.9674 4.24512,32.9674 4.5,30.5C 6.23931,27.7573 8.57265,25.7573 11.5,24.5C 15.1667,24.5 18.8333,24.5 22.5,24.5C 25.0848,25.8961 27.5848,27.5628 30,29.5C 32.3892,27.6006 34.8892,25.9339 37.5,24.5C 40.4824,24.0371 43.4824,23.7038 46.5,23.5 Z"/></g>
<g><path style="opacity:1" fill="#5c5c5c" d="M 46.5,23.5 C 43.4824,23.7038 40.4824,24.0371 37.5,24.5C 38.9461,23.0598 40.7794,22.3932 43,22.5C 44.3847,22.5143 45.5514,22.8476 46.5,23.5 Z"/></g>
<g><path style="opacity:1" fill="#4f4f4f" d="M 22.5,24.5 C 18.8333,24.5 15.1667,24.5 11.5,24.5C 15.1667,21.8333 18.8333,21.8333 22.5,24.5 Z"/></g>
<g><path style="opacity:1" fill="#767676" d="M 1.5,37.5 C 1.5,48.8333 1.5,60.1667 1.5,71.5C 6.16667,71.5 10.8333,71.5 15.5,71.5C 10.6946,72.4872 5.69463,72.8205 0.5,72.5C 0.171739,60.6547 0.505072,48.988 1.5,37.5 Z"/></g>
<g><path style="opacity:1" fill="#5d5d5d" d="M 22.5,41.5 C 23.494,51.3194 23.8274,61.3194 23.5,71.5C 27.8333,71.5 32.1667,71.5 36.5,71.5C 36.1726,61.3194 36.506,51.3194 37.5,41.5C 37.5,51.8333 37.5,62.1667 37.5,72.5C 32.5,72.5 27.5,72.5 22.5,72.5C 22.5,62.1667 22.5,51.8333 22.5,41.5 Z"/></g>
<g><path style="opacity:1" fill="#ff8658" d="M 95.5,51.5 C 97.445,53.3069 98.445,55.6402 98.5,58.5C 98.5643,60.5566 97.8976,62.2233 96.5,63.5C 96.693,59.4338 96.3597,55.4338 95.5,51.5 Z"/></g>
<g><path style="opacity:1" fill="#ff7d4d" d="M 65.5,59.5 C 65.5,63.1667 65.5,66.8333 65.5,70.5C 72.8333,70.5 80.1667,70.5 87.5,70.5C 80.0182,71.492 72.3516,71.8254 64.5,71.5C 64.1832,67.2984 64.5166,63.2984 65.5,59.5 Z"/></g>
</svg>
